<?xml version="1.0" standalone="yes"?>
<svg xmlns="http://www.w3.org/2000/svg" width="1080" height="1920">
<path style="fill:#5f46a4; stroke:none;" d="M0 0L0 1142L1 1142L43.7523 1059L149.742 853L429.258 309L537.258 99L571.248 33L587 1L0 0z"/>
<path style="fill:#5b73ad; stroke:none;" d="M79 0L79 1L587 1C573.152 34.2612 553.781 65.9884 537.258 98C501.155 167.949 465.36 238.055 429.258 308C341.481 478.064 257.731 650.667 166.691 819C124.489 897.032 84.4493 976.659 44.7531 1056C28.6517 1088.18 0 1124.58 0 1161C14.7744 1156.32 29.3129 1144.07 42 1135.34C82.6756 1107.36 115.904 1072.38 153 1040.28C208.613 992.161 276.855 958.494 348 940.475C401.83 926.841 455.713 923 511 923C525.201 923 539.911 923.573 554 925.424C558.196 925.976 567.699 928.596 571.034 925.396C577.003 919.668 580.573 908.347 584.247 901C592.766 883.961 601.246 866.757 610.309 850C647.024 782.113 680.859 712.586 716.258 644C787.779 505.432 858.736 366.573 930.258 228C954.15 181.711 977.471 135.073 1001.78 89C1016.99 60.1699 1034.48 31.0833 1047 1L79 0z"/>
<path style="fill:#57a0b6; stroke:none;" d="M662 0L662 1L1047 1C1006.34 70.6716 972.744 145.309 935.742 217C864.221 355.568 793.264 494.427 721.742 633C686.327 701.614 650.481 770.031 615.752 839C605.295 859.767 594.154 880.198 583.753 901C579.499 909.508 572.676 918.6 571 928C625.835 928.454 679.858 952.401 733 963.199C811.311 979.112 892.204 980.633 971 967.414C996.99 963.053 1022.84 956.842 1048 949.026C1056.93 946.25 1070.15 944.482 1077.68 938.775C1081.52 935.869 1080 928.234 1080 924L1080 882L1080 709L1080 0L662 0M461 923L461 924L466 924L461 923z"/>
<path style="fill:#c1d3e2; stroke:none;" d="M466 923L466 924L484 924L466 923z"/>
<path style="fill:#ffffff; stroke:none;" d="M0 1920L1080 1920L1080 939C1054.42 944.919 1029.69 955.027 1004 961.116C952.248 973.381 897.149 979.288 844 976.961C801.977 975.121 760.083 969.777 719 960.349C673.142 949.825 628.865 935.444 582 929.282C458.246 913.009 325.597 929.292 217 994.449C178.329 1017.65 146.795 1046.36 114 1076.91C89.6485 1099.59 63.7096 1120.85 36 1139.33C27.7648 1144.83 19.3745 1150.04 11 1155.32C7.729 1157.38 2.22358 1159.45 0.603395 1163.21C-1.66694 1168.48 0 1177.32 0 1183L0 1227L0 1381L0 1920z"/>
<path style="fill:#c1d3e2; stroke:none;" d="M502 923L502 924L520 924L502 923z"/>
<path style="fill:#57a0b6; stroke:none;" d="M520 923L520 924L526 924L520 923M445 924L445 925L449 925L445 924z"/>
<path style="fill:#c1d3e2; stroke:none;" d="M449 924L449 925L457 925L449 924M531 924L531 925L539 925L531 924z"/>
<path style="fill:#57a0b6; stroke:none;" d="M539 924L539 925L544 925L539 924M434 925L434 926L437 926L434 925z"/>
<path style="fill:#c1d3e2; stroke:none;" d="M437 925L437 926L441 926L437 925M546 925L546 926L551 926L546 925z"/>
<path style="fill:#57a0b6; stroke:none;" d="M551 925L551 926L555 926L551 925M425.667 926.333L426.333 926.667L425.667 926.333z"/>
<path style="fill:#c1d3e2; stroke:none;" d="M427 926L427 927L431 927L427 926M557 926L557 927L562 927L557 926z"/>
<path style="fill:#57a0b6; stroke:none;" d="M562 926L562 927L565 927L562 926M417.667 927.333L418.333 927.667L417.667 927.333z"/>
<path style="fill:#c1d3e2; stroke:none;" d="M419 927L419 928L422 928L419 927M567 927L567 928L571 928L567 927z"/>
<path style="fill:#57a0b6; stroke:none;" d="M408 928L408 929L411 929L408 928z"/>
<path style="fill:#c1d3e2; stroke:none;" d="M411 928L411 929L414 929L411 928M575 928L575 929L579 929L575 928z"/>
<path style="fill:#57a0b6; stroke:none;" d="M401.667 929.333L402.333 929.667L401.667 929.333z"/>
<path style="fill:#c1d3e2; stroke:none;" d="M403 929L403 930L406 930L403 929M583 929L583 930L587 930L583 929z"/>
<path style="fill:#57a0b6; stroke:none;" d="M395.667 930.333L396.333 930.667L395.667 930.333z"/>
<path style="fill:#c1d3e2; stroke:none;" d="M397.667 930.333L398.333 930.667L397.667 930.333M590 930L590 931L593 931L590 930z"/>
<path style="fill:#57a0b6; stroke:none;" d="M389.667 931.333L390.333 931.667L389.667 931.333z"/>
<path style="fill:#c1d3e2; stroke:none;" d="M391.667 931.333L392.333 931.667L391.667 931.333M596 931L596 932L599 932L596 931z"/>
<path style="fill:#57a0b6; stroke:none;" d="M384 932L385 933L384 932z"/>
<path style="fill:#c1d3e2; stroke:none;" d="M385 932L385 933L388 933L385 932M602 932L602 933L605 933L602 932z"/>
<path style="fill:#57a0b6; stroke:none;" d="M379 933L380 934L379 933z"/>
<path style="fill:#c1d3e2; stroke:none;" d="M380.667 933.333L381.333 933.667L380.667 933.333M608 933L608 934L611 934L608 933z"/>
<path style="fill:#57a0b6; stroke:none;" d="M374 934L375 935L374 934z"/>
<path style="fill:#c1d3e2; stroke:none;" d="M375.667 934.333L376.333 934.667L375.667 934.333M614.667 934.333L615.333 934.667L614.667 934.333z"/>
<path style="fill:#57a0b6; stroke:none;" d="M369 935L370 936L369 935z"/>
<path style="fill:#c1d3e2; stroke:none;" d="M370.667 935.333L371.333 935.667L370.667 935.333M619.667 935.333L620.333 935.667L619.667 935.333z"/>
<path style="fill:#57a0b6; stroke:none;" d="M364 936L365 937L364 936z"/>
<path style="fill:#c1d3e2; stroke:none;" d="M365.667 936.333L366.333 936.667L365.667 936.333M624.667 936.333L625.333 936.667L624.667 936.333z"/>
<path style="fill:#57a0b6; stroke:none;" d="M360 937L361 938L360 937z"/>
<path style="fill:#c1d3e2; stroke:none;" d="M361.667 937.333L362.333 937.667L361.667 937.333M629.667 937.333L630.333 937.667L629.667 937.333z"/>
<path style="fill:#57a0b6; stroke:none;" d="M355.667 938.333L356.333 938.667L355.667 938.333z"/>
<path style="fill:#c1d3e2; stroke:none;" d="M357.667 938.333L358.333 938.667L357.667 938.333M634.667 938.333L635.333 938.667L634.667 938.333M1079 938L1080 939L1079 938M352.667 939.333L353.333 939.667L352.667 939.333M639 939L640 940L639 939M1076.67 939.333L1077.33 939.667L1076.67 939.333z"/>
<path style="fill:#57a0b6; stroke:none;" d="M347 940L348 941L347 940z"/>
<path style="fill:#c1d3e2; stroke:none;" d="M348.667 940.333L349.333 940.667L348.667 940.333M643.667 940.333L644.333 940.667L643.667 940.333M1074 940L1075 941L1074 940M344.667 941.333L345.333 941.667L344.667 941.333M647.667 941.333L648.333 941.667L647.667 941.333M1071 941L1072 942L1071 941z"/>
<path style="fill:#57a0b6; stroke:none;" d="M340 942L341 943L340 942z"/>
<path style="fill:#c1d3e2; stroke:none;" d="M341 942L342 943L341 942M651.667 942.333L652.333 942.667L651.667 942.333M1068 942L1069 943L1068 942M337.667 943.333L338.333 943.667L337.667 943.333M655.667 943.333L656.333 943.667L655.667 943.333M1065.67 943.333L1066.33 943.667L1065.67 943.333z"/>
<path style="fill:#57a0b6; stroke:none;" d="M333 944L334 945L333 944z"/>
<path style="fill:#c1d3e2; stroke:none;" d="M334.667 944.333L335.333 944.667L334.667 944.333M659.667 944.333L660.333 944.667L659.667 944.333M1062 944L1063 945L1062 944z"/>
<path style="fill:#57a0b6; stroke:none;" d="M330 945L331 946L330 945z"/>
<path style="fill:#c1d3e2; stroke:none;" d="M331 945L332 946L331 945M663.667 945.333L664.333 945.667L663.667 945.333M1059 945L1060 946L1059 945z"/>
<path style="fill:#57a0b6; stroke:none;" d="M326 946L327 947L326 946z"/>
<path style="fill:#c1d3e2; stroke:none;" d="M327.667 946.333L328.333 946.667L327.667 946.333M667 946L668 947L667 946M1056 946L1057 947L1056 946z"/>
<path style="fill:#57a0b6; stroke:none;" d="M323 947L324 948L323 947z"/>
<path style="fill:#c1d3e2; stroke:none;" d="M324 947L325 948L324 947M670.667 947.333L671.333 947.667L670.667 947.333M1053 947L1054 948L1053 947M320.667 948.333L321.333 948.667L320.667 948.333M674.667 948.333L675.333 948.667L674.667 948.333M1049.67 948.333L1050.33 948.667L1049.67 948.333M317.667 949.333L318.333 949.667L317.667 949.333M678 949L679 950L678 949M1046.67 949.333L1047.33 949.667L1046.67 949.333M314.667 950.333L315.333 950.667L314.667 950.333M681.667 950.333L682.333 950.667L681.667 950.333M1043.67 950.333L1044.33 950.667L1043.67 950.333M311.667 951.333L312.333 951.667L311.667 951.333M685.667 951.333L686.333 951.667L685.667 951.333M1040 951L1041 952L1040 951z"/>
<path style="fill:#57a0b6; stroke:none;" d="M308 952L309 953L308 952z"/>
<path style="fill:#c1d3e2; stroke:none;" d="M309 952L310 953L309 952M689 952L690 953L689 952M1036.67 952.333L1037.33 952.667L1036.67 952.333z"/>
<path style="fill:#57a0b6; stroke:none;" d="M305 953L306 954L305 953z"/>
<path style="fill:#c1d3e2; stroke:none;" d="M306 953L307 954L306 953M692.667 953.333L693.333 953.667L692.667 953.333M1033 953L1034 954L1033 953z"/>
<path style="fill:#57a0b6; stroke:none;" d="M302 954L303 955L302 954z"/>
<path style="fill:#c1d3e2; stroke:none;" d="M303 954L304 955L303 954M696.667 954.333L697.333 954.667L696.667 954.333M1029.67 954.333L1030.33 954.667L1029.67 954.333z"/>
<path style="fill:#57a0b6; stroke:none;" d="M299 955L300 956L299 955z"/>
<path style="fill:#c1d3e2; stroke:none;" d="M300 955L301 956L300 955M700 955L701 956L700 955M1025.67 955.333L1026.33 955.667L1025.67 955.333z"/>
<path style="fill:#57a0b6; stroke:none;" d="M296 956L297 957L296 956z"/>
<path style="fill:#c1d3e2; stroke:none;" d="M297 956L298 957L297 956M703.667 956.333L704.333 956.667L703.667 956.333M1021.67 956.333L1022.33 956.667L1021.67 956.333M294 957L295 958L294 957M707.667 957.333L708.333 957.667L707.667 957.333M1017.67 957.333L1018.33 957.667L1017.67 957.333z"/>
<path style="fill:#57a0b6; stroke:none;" d="M291 958L292 959L291 958z"/>
<path style="fill:#c1d3e2; stroke:none;" d="M292 958L293 959L292 958M711.667 958.333L712.333 958.667L711.667 958.333M1013.67 958.333L1014.33 958.667L1013.67 958.333z"/>
<path style="fill:#57a0b6; stroke:none;" d="M288 959L289 960L288 959z"/>
<path style="fill:#c1d3e2; stroke:none;" d="M289 959L290 960L289 959M715.667 959.333L716.333 959.667L715.667 959.333M1009.67 959.333L1010.33 959.667L1009.67 959.333M286 960L287 961L286 960M719.667 960.333L720.333 960.667L719.667 960.333M1005.67 960.333L1006.33 960.667L1005.67 960.333z"/>
<path style="fill:#57a0b6; stroke:none;" d="M283 961L284 962L283 961z"/>
<path style="fill:#c1d3e2; stroke:none;" d="M284 961L285 962L284 961M724.667 961.333L725.333 961.667L724.667 961.333M1000 961L1000 962L1003 962L1000 961M281 962L282 963L281 962M728.667 962.333L729.333 962.667L728.667 962.333M995 962L995 963L998 963L995 962z"/>
<path style="fill:#57a0b6; stroke:none;" d="M278 963L279 964L278 963z"/>
<path style="fill:#c1d3e2; stroke:none;" d="M279 963L280 964L279 963M733.667 963.333L734.333 963.667L733.667 963.333M991.667 963.333L992.333 963.667L991.667 963.333z"/>
<path style="fill:#57a0b6; stroke:none;" d="M276 964L277 965L276 964z"/>
<path style="fill:#c1d3e2; stroke:none;" d="M277 964L278 965L277 964M738.667 964.333L739.333 964.667L738.667 964.333M986.667 964.333L987.333 964.667L986.667 964.333M274 965L275 966L274 965M743.667 965.333L744.333 965.667L743.667 965.333M981.667 965.333L982.333 965.667L981.667 965.333z"/>
<path style="fill:#57a0b6; stroke:none;" d="M271 966L272 967L271 966z"/>
<path style="fill:#c1d3e2; stroke:none;" d="M272 966L273 967L272 966M748.667 966.333L749.333 966.667L748.667 966.333M976.667 966.333L977.333 966.667L976.667 966.333z"/>
<path style="fill:#57a0b6; stroke:none;" d="M269 967L270 968L269 967z"/>
<path style="fill:#c1d3e2; stroke:none;" d="M754 967L754 968L757 968L754 967M970 967L970 968L973 968L970 967M267 968L268 969L267 968M760 968L760 969L763 969L760 968M964 968L964 969L967 969L964 968M265 969L266 970L265 969M766 969L766 970L769 970L766 969M958 969L958 970L961 970L958 969z"/>
<path style="fill:#57a0b6; stroke:none;" d="M262 970L263 971L262 970z"/>
<path style="fill:#c1d3e2; stroke:none;" d="M263 970L264 971L263 970M773 970L773 971L777 971L773 970M951 970L951 971L954 971L951 970z"/>
<path style="fill:#57a0b6; stroke:none;" d="M260 971L261 972L260 971z"/>
<path style="fill:#c1d3e2; stroke:none;" d="M780 971L780 972L784 972L780 971M943 971L943 972L947 972L943 971M258 972L259 973L258 972M788 972L788 973L792 973L788 972M933 972L933 973L938 973L933 972M256 973L257 974L256 973M796 973L796 974L802 974L796 973M924 973L924 974L929 974L924 973M254 974L255 975L254 974M808 974L808 975L814 975L808 974M913 974L913 975L920 975L913 974M252 975L253 976L252 975M821 975L821 976L830 976L821 975M899 975L899 976L906 976L899 975z"/>
<path style="fill:#57a0b6; stroke:none;" d="M249 976L250 977L249 976z"/>
<path style="fill:#c1d3e2; stroke:none;" d="M250 976L251 977L250 976M839 976L839 977L862 977L839 976M865 976L865 977L892 977L865 976z"/>
<path style="fill:#57a0b6; stroke:none;" d="M247 977L248 978L247 977z"/>
<path style="fill:#c1d3e2; stroke:none;" d="M248 977L249 978L248 977z"/>
<path style="fill:#57a0b6; stroke:none;" d="M245 978L246 979L245 978z"/>
<path style="fill:#c1d3e2; stroke:none;" d="M246 978L247 979L246 978z"/>
<path style="fill:#57a0b6; stroke:none;" d="M243 979L244 980L243 979z"/>
<path style="fill:#c1d3e2; stroke:none;" d="M244 979L245 980L244 979z"/>
<path style="fill:#57a0b6; stroke:none;" d="M241 980L242 981L241 980z"/>
<path style="fill:#c1d3e2; stroke:none;" d="M242 980L243 981L242 980z"/>
<path style="fill:#57a0b6; stroke:none;" d="M239 981L240 982L239 981z"/>
<path style="fill:#c1d3e2; stroke:none;" d="M240 981L241 982L240 981M238 982L239 983L238 982M236 983L237 984L236 983M234 984L235 985L234 984M232 985L233 986L232 985z"/>
<path style="fill:#57a0b6; stroke:none;" d="M230 986L231 987L230 986M228 987L229 988L228 987z"/>
<path style="fill:#c1d3e2; stroke:none;" d="M229 987L230 988L229 987M227 988L228 989L227 988M225 989L226 990L225 989z"/>
<path style="fill:#57a0b6; stroke:none;" d="M223 990L224 991L223 990z"/>
<path style="fill:#c1d3e2; stroke:none;" d="M222 991L223 992L222 991M220 992L221 993L220 992M218 993L219 994L218 993z"/>
<path style="fill:#57a0b6; stroke:none;" d="M216 994L217 995L216 994z"/>
<path style="fill:#c1d3e2; stroke:none;" d="M215 995L216 996L215 995M213 996L214 997L213 996M212 997L213 998L212 997M210 998L211 999L210 998z"/>
<path style="fill:#57a0b6; stroke:none;" d="M208 999L209 1000L208 999z"/>
<path style="fill:#c1d3e2; stroke:none;" d="M207 1000L208 1001L207 1000M205 1001L206 1002L205 1001M204 1002L205 1003L204 1002M202 1003L203 1004L202 1003z"/>
<path style="fill:#57a0b6; stroke:none;" d="M200 1004L201 1005L200 1004z"/>
<path style="fill:#c1d3e2; stroke:none;" d="M199 1005L200 1006L199 1005z"/>
<path style="fill:#57a0b6; stroke:none;" d="M197 1006L198 1007L197 1006z"/>
<path style="fill:#c1d3e2; stroke:none;" d="M196 1007L197 1008L196 1007z"/>
<path style="fill:#57a0b6; stroke:none;" d="M194 1008L195 1009L194 1008z"/>
<path style="fill:#c1d3e2; stroke:none;" d="M193 1009L194 1010L193 1009z"/>
<path style="fill:#57a0b6; stroke:none;" d="M191 1010L192 1011L191 1010z"/>
<path style="fill:#c1d3e2; stroke:none;" d="M190 1011L191 1012L190 1011z"/>
<path style="fill:#57a0b6; stroke:none;" d="M188 1012L189 1013L188 1012z"/>
<path style="fill:#c1d3e2; stroke:none;" d="M187 1013L188 1014L187 1013M184 1015L185 1016L184 1015M183 1016L184 1017L183 1016z"/>
<path style="fill:#57a0b6; stroke:none;" d="M181 1017L182 1018L181 1017z"/>
<path style="fill:#c1d3e2; stroke:none;" d="M180 1018L181 1019L180 1018M177 1020L178 1021L177 1020M176 1021L177 1022L176 1021M173 1023L174 1024L173 1023M172 1024L173 1025L172 1024z"/>
<path style="fill:#57a0b6; stroke:none;" d="M169 1026L170 1027L169 1026z"/>
<path style="fill:#c1d3e2; stroke:none;" d="M168 1027L169 1028L168 1027M167 1028L168 1029L167 1028z"/>
<path style="fill:#57a0b6; stroke:none;" d="M164 1030L165 1031L164 1030z"/>
<path style="fill:#c1d3e2; stroke:none;" d="M163 1031L164 1032L163 1031M162 1032L163 1033L162 1032z"/>
<path style="fill:#57a0b6; stroke:none;" d="M159 1034L160 1035L159 1034z"/>
<path style="fill:#c1d3e2; stroke:none;" d="M158 1035L159 1036L158 1035M157 1036L158 1037L157 1036M156 1037L157 1038L156 1037z"/>
<path style="fill:#57a0b6; stroke:none;" d="M153 1039L154 1040L153 1039M152 1040L153 1041L152 1040z"/>
<path style="fill:#c1d3e2; stroke:none;" d="M151 1041L152 1042L151 1041M150 1042L151 1043L150 1042M149 1043L150 1044L149 1043z"/>
<path style="fill:#57a0b6; stroke:none;" d="M145 1046L146 1047L145 1046M144 1047L145 1048L144 1047M143 1048L144 1049L143 1048z"/>
<path style="fill:#c1d3e2; stroke:none;" d="M142 1049L143 1050L142 1049M141 1050L142 1051L141 1050M140 1051L141 1052L140 1051M139 1052L140 1053L139 1052z"/>
<path style="fill:#57a0b6; stroke:none;" d="M126 1064L127 1065L126 1064M125 1065L126 1066L125 1065M124 1066L125 1067L124 1066M123 1067L124 1068L123 1067M122 1068L123 1069L122 1068M121 1069L122 1070L121 1069M120 1070L121 1071L120 1070z"/>
<path style="fill:#c1d3e2; stroke:none;" d="M119 1071L120 1072L119 1071M118 1072L119 1073L118 1072M117 1073L118 1074L117 1073M116 1074L117 1075L116 1074M115 1075L116 1076L115 1075M114 1076L115 1077L114 1076M113 1077L114 1078L113 1077M112 1078L113 1079L112 1078M111 1079L112 1080L111 1079z"/>
<path style="fill:#57a0b6; stroke:none;" d="M106 1083L107 1084L106 1083M105 1084L106 1085L105 1084z"/>
<path style="fill:#c1d3e2; stroke:none;" d="M104 1085L105 1086L104 1085M103 1086L104 1087L103 1086M102 1087L103 1088L102 1087M101 1088L102 1089L101 1088M100 1089L101 1090L100 1089z"/>
<path style="fill:#57a0b6; stroke:none;" d="M96 1092L97 1093L96 1092z"/>
<path style="fill:#c1d3e2; stroke:none;" d="M95 1093L96 1094L95 1093M94 1094L95 1095L94 1094M93 1095L94 1096L93 1095M92 1096L93 1097L92 1096z"/>
<path style="fill:#57a0b6; stroke:none;" d="M88 1099L89 1100L88 1099z"/>
<path style="fill:#c1d3e2; stroke:none;" d="M87 1100L88 1101L87 1100M86 1101L87 1102L86 1101M85 1102L86 1103L85 1102z"/>
<path style="fill:#57a0b6; stroke:none;" d="M82 1104L83 1105L82 1104z"/>
<path style="fill:#c1d3e2; stroke:none;" d="M81 1105L82 1106L81 1105M80 1106L81 1107L80 1106z"/>
<path style="fill:#57a0b6; stroke:none;" d="M77 1108L78 1109L77 1108z"/>
<path style="fill:#c1d3e2; stroke:none;" d="M76 1109L77 1110L76 1109M75 1110L76 1111L75 1110z"/>
<path style="fill:#57a0b6; stroke:none;" d="M72 1112L73 1113L72 1112z"/>
<path style="fill:#c1d3e2; stroke:none;" d="M71 1113L72 1114L71 1113M70 1114L71 1115L70 1114M69 1115L70 1116L69 1115z"/>
<path style="fill:#57a0b6; stroke:none;" d="M67 1116L68 1117L67 1116z"/>
<path style="fill:#c1d3e2; stroke:none;" d="M66 1117L67 1118L66 1117z"/>
<path style="fill:#57a0b6; stroke:none;" d="M63 1119L64 1120L63 1119z"/>
<path style="fill:#c1d3e2; stroke:none;" d="M62 1120L63 1121L62 1120z"/>
<path style="fill:#57a0b6; stroke:none;" d="M59 1122L60 1123L59 1122z"/>
<path style="fill:#c1d3e2; stroke:none;" d="M58 1123L59 1124L58 1123z"/>
<path style="fill:#57a0b6; stroke:none;" d="M55 1125L56 1126L55 1125z"/>
<path style="fill:#c1d3e2; stroke:none;" d="M54 1126L55 1127L54 1126M51 1128L52 1129L51 1128M50 1129L51 1130L50 1129z"/>
<path style="fill:#57a0b6; stroke:none;" d="M48 1130L49 1131L48 1130z"/>
<path style="fill:#c1d3e2; stroke:none;" d="M47 1131L48 1132L47 1131M44 1133L45 1134L44 1133M43 1134L44 1135L43 1134z"/>
<path style="fill:#57a0b6; stroke:none;" d="M41 1135L42 1136L41 1135z"/>
<path style="fill:#c1d3e2; stroke:none;" d="M40 1136L41 1137L40 1136z"/>
<path style="fill:#57a0b6; stroke:none;" d="M38 1137L39 1138L38 1137z"/>
<path style="fill:#c1d3e2; stroke:none;" d="M37 1138L38 1139L37 1138M34 1140L35 1141L34 1140M31 1142L32 1143L31 1142z"/>
<path style="fill:#57a0b6; stroke:none;" d="M29 1143L30 1144L29 1143z"/>
<path style="fill:#c1d3e2; stroke:none;" d="M28 1144L29 1145L28 1144z"/>
<path style="fill:#57a0b6; stroke:none;" d="M26 1145L27 1146L26 1145z"/>
<path style="fill:#c1d3e2; stroke:none;" d="M25 1146L26 1147L25 1146M23 1147L24 1148L23 1147M20 1149L21 1150L20 1149z"/>
<path style="fill:#57a0b6; stroke:none;" d="M18 1150L19 1151L18 1150z"/>
<path style="fill:#c1d3e2; stroke:none;" d="M17 1151L18 1152L17 1151M15 1152L16 1153L15 1152M12 1154L13 1155L12 1154z"/>
<path style="fill:#57a0b6; stroke:none;" d="M10 1155L11 1156L10 1155z"/>
<path style="fill:#c1d3e2; stroke:none;" d="M9 1156L10 1157L9 1156M7 1157L8 1158L7 1157z"/>
<path style="fill:#57a0b6; stroke:none;" d="M5 1158L6 1159L5 1158z"/>
<path style="fill:#c1d3e2; stroke:none;" d="M4 1159L5 1160L4 1159M2 1160L3 1161L2 1160z"/>
<path style="fill:#57a0b6; stroke:none;" d="M0 1161L1 1162L0 1161z"/>
</svg>
